<mxfile host="app.diagrams.net" modified="2023-10-11T12:05:24.943Z" agent="Mozilla/5.0 (Windows NT 10.0; Win64; x64) AppleWebKit/537.36 (KHTML, like Gecko) Chrome/117.0.0.0 Safari/537.36 Edg/117.0.2045.60" etag="zawvLgW7y6k7L9Tu7Pwg" version="22.0.4" type="github">
  <diagram name="Page-1" id="2YBvvXClWsGukQMizWep">
    <mxGraphModel dx="2088" dy="941" grid="1" gridSize="10" guides="1" tooltips="1" connect="1" arrows="0" fold="1" page="0" pageScale="1" pageWidth="850" pageHeight="1100" math="0" shadow="0">
      <root>
        <mxCell id="0" />
        <mxCell id="1" parent="0" />
        <mxCell id="aM9ryv3xv72pqoxQDRHE-5" value="导入导出服务" style="shape=umlLifeline;perimeter=lifelinePerimeter;html=1;container=0;dropTarget=0;collapsible=0;recursiveResize=0;outlineConnect=0;portConstraint=eastwest;newEdgeStyle={&quot;edgeStyle&quot;:&quot;elbowEdgeStyle&quot;,&quot;elbow&quot;:&quot;vertical&quot;,&quot;curved&quot;:0,&quot;rounded&quot;:0};labelBackgroundColor=none;fillColor=#F2CC8F;strokeColor=#E07A5F;fontColor=#393C56;" parent="1" vertex="1">
          <mxGeometry x="410" y="170" width="120" height="790" as="geometry" />
        </mxCell>
        <mxCell id="aM9ryv3xv72pqoxQDRHE-1" value="接收方客户端" style="shape=umlLifeline;perimeter=lifelinePerimeter;html=1;container=0;dropTarget=0;collapsible=0;recursiveResize=0;outlineConnect=0;portConstraint=eastwest;newEdgeStyle={&quot;edgeStyle&quot;:&quot;elbowEdgeStyle&quot;,&quot;elbow&quot;:&quot;vertical&quot;,&quot;curved&quot;:0,&quot;rounded&quot;:0};labelBackgroundColor=none;fillColor=#F2CC8F;strokeColor=#E07A5F;fontColor=#393C56;" parent="1" vertex="1">
          <mxGeometry x="29" y="170" width="100" height="790" as="geometry" />
        </mxCell>
        <mxCell id="aM9ryv3xv72pqoxQDRHE-2" value="" style="html=1;points=[];perimeter=orthogonalPerimeter;outlineConnect=0;targetShapes=umlLifeline;portConstraint=eastwest;newEdgeStyle={&quot;edgeStyle&quot;:&quot;elbowEdgeStyle&quot;,&quot;elbow&quot;:&quot;vertical&quot;,&quot;curved&quot;:0,&quot;rounded&quot;:0};labelBackgroundColor=none;fillColor=#F2CC8F;strokeColor=#E07A5F;fontColor=#393C56;" parent="1" vertex="1">
          <mxGeometry x="74" y="244" width="10" height="696" as="geometry" />
        </mxCell>
        <mxCell id="aM9ryv3xv72pqoxQDRHE-3" value="&amp;nbsp;doAction" style="html=1;verticalAlign=bottom;startArrow=none;endArrow=block;startSize=8;edgeStyle=elbowEdgeStyle;elbow=vertical;curved=0;rounded=0;startFill=0;labelBackgroundColor=none;strokeColor=#E07A5F;fontColor=default;" parent="1" target="aM9ryv3xv72pqoxQDRHE-2" edge="1">
          <mxGeometry x="-0.0691" y="6" relative="1" as="geometry">
            <mxPoint x="-47" y="244" as="sourcePoint" />
            <Array as="points" />
            <mxPoint as="offset" />
          </mxGeometry>
        </mxCell>
        <mxCell id="dqEPXR2y4I70jWlFoT9I-14" value="" style="group;labelBackgroundColor=none;fontColor=#393C56;" parent="1" vertex="1" connectable="0">
          <mxGeometry x="-61" y="139" width="30" height="125" as="geometry" />
        </mxCell>
        <mxCell id="dqEPXR2y4I70jWlFoT9I-5" value="Actor" style="shape=umlActor;verticalLabelPosition=bottom;verticalAlign=top;html=1;labelBackgroundColor=none;fillColor=#F2CC8F;strokeColor=#E07A5F;fontColor=#393C56;" parent="dqEPXR2y4I70jWlFoT9I-14" vertex="1">
          <mxGeometry width="30" height="60" as="geometry" />
        </mxCell>
        <mxCell id="dqEPXR2y4I70jWlFoT9I-12" value="" style="html=1;verticalAlign=bottom;endArrow=none;dashed=1;endSize=8;edgeStyle=elbowEdgeStyle;elbow=vertical;curved=0;rounded=0;endFill=0;labelBackgroundColor=none;strokeColor=#E07A5F;fontColor=default;" parent="dqEPXR2y4I70jWlFoT9I-14" edge="1">
          <mxGeometry relative="1" as="geometry">
            <mxPoint x="15" y="821" as="targetPoint" />
            <Array as="points">
              <mxPoint x="21.5" y="125" />
              <mxPoint x="15" y="163" />
            </Array>
            <mxPoint x="15" y="79" as="sourcePoint" />
          </mxGeometry>
        </mxCell>
        <mxCell id="dqEPXR2y4I70jWlFoT9I-20" value="接收方文件服务器" style="shape=umlLifeline;perimeter=lifelinePerimeter;html=1;container=0;dropTarget=0;collapsible=0;recursiveResize=0;outlineConnect=0;portConstraint=eastwest;newEdgeStyle={&quot;edgeStyle&quot;:&quot;elbowEdgeStyle&quot;,&quot;elbow&quot;:&quot;vertical&quot;,&quot;curved&quot;:0,&quot;rounded&quot;:0};labelBackgroundColor=none;fillColor=#F2CC8F;strokeColor=#E07A5F;fontColor=#393C56;" parent="1" vertex="1">
          <mxGeometry x="600" y="170" width="100" height="790" as="geometry" />
        </mxCell>
        <mxCell id="xVjlX6ZCD8ZEZcHUDVlv-81" value="" style="html=1;verticalAlign=bottom;endArrow=open;dashed=1;endSize=8;edgeStyle=elbowEdgeStyle;elbow=vertical;curved=0;rounded=0;labelBackgroundColor=none;strokeColor=#E07A5F;fontColor=default;" parent="1" edge="1">
          <mxGeometry x="-1" y="397" relative="1" as="geometry">
            <mxPoint x="-40" y="940" as="targetPoint" />
            <Array as="points">
              <mxPoint x="45" y="940" />
            </Array>
            <mxPoint x="70" y="940" as="sourcePoint" />
            <mxPoint x="276" y="-111" as="offset" />
          </mxGeometry>
        </mxCell>
        <mxCell id="_pvaLfHRy_cF2C6sSua_-3" value="发送方客户端&lt;br&gt;openAPI" style="shape=umlLifeline;perimeter=lifelinePerimeter;html=1;container=0;dropTarget=0;collapsible=0;recursiveResize=0;outlineConnect=0;portConstraint=eastwest;newEdgeStyle={&quot;edgeStyle&quot;:&quot;elbowEdgeStyle&quot;,&quot;elbow&quot;:&quot;vertical&quot;,&quot;curved&quot;:0,&quot;rounded&quot;:0};labelBackgroundColor=none;fillColor=#F2CC8F;strokeColor=#E07A5F;fontColor=#393C56;" parent="1" vertex="1">
          <mxGeometry x="790" y="170" width="100" height="790" as="geometry" />
        </mxCell>
        <mxCell id="_pvaLfHRy_cF2C6sSua_-4" value="" style="html=1;points=[];perimeter=orthogonalPerimeter;outlineConnect=0;targetShapes=umlLifeline;portConstraint=eastwest;newEdgeStyle={&quot;edgeStyle&quot;:&quot;elbowEdgeStyle&quot;,&quot;elbow&quot;:&quot;vertical&quot;,&quot;curved&quot;:0,&quot;rounded&quot;:0};labelBackgroundColor=none;fillColor=#F2CC8F;strokeColor=#E07A5F;fontColor=#393C56;" parent="_pvaLfHRy_cF2C6sSua_-3" vertex="1">
          <mxGeometry x="45.5" y="630.17" width="10" height="20" as="geometry" />
        </mxCell>
        <mxCell id="_pvaLfHRy_cF2C6sSua_-5" value="访问接收方环境，获取token" style="html=1;verticalAlign=bottom;endArrow=block;edgeStyle=elbowEdgeStyle;elbow=vertical;curved=0;rounded=0;labelBackgroundColor=none;strokeColor=#E07A5F;fontColor=default;" parent="1" edge="1" source="aM9ryv3xv72pqoxQDRHE-2">
          <mxGeometry x="0.1018" y="3" relative="1" as="geometry">
            <mxPoint x="260.5" y="800.17" as="sourcePoint" />
            <Array as="points" />
            <mxPoint x="830.5" y="800.17" as="targetPoint" />
            <mxPoint as="offset" />
          </mxGeometry>
        </mxCell>
        <mxCell id="_pvaLfHRy_cF2C6sSua_-6" value="" style="html=1;verticalAlign=bottom;endArrow=open;dashed=1;endSize=8;elbow=vertical;rounded=0;labelBackgroundColor=none;strokeColor=#E07A5F;fontColor=default;" parent="1" edge="1">
          <mxGeometry relative="1" as="geometry">
            <mxPoint x="90" y="820" as="targetPoint" />
            <mxPoint x="840.5" y="820.17" as="sourcePoint" />
          </mxGeometry>
        </mxCell>
        <mxCell id="aM9ryv3xv72pqoxQDRHE-6" value="" style="html=1;points=[];perimeter=orthogonalPerimeter;outlineConnect=0;targetShapes=umlLifeline;portConstraint=eastwest;newEdgeStyle={&quot;edgeStyle&quot;:&quot;elbowEdgeStyle&quot;,&quot;elbow&quot;:&quot;vertical&quot;,&quot;curved&quot;:0,&quot;rounded&quot;:0};labelBackgroundColor=none;fillColor=#F2CC8F;strokeColor=#E07A5F;fontColor=#393C56;" parent="1" vertex="1">
          <mxGeometry x="465.5" y="350" width="10" height="330" as="geometry" />
        </mxCell>
        <mxCell id="_pvaLfHRy_cF2C6sSua_-27" value="调用数据包导入服务" style="html=1;verticalAlign=bottom;startArrow=none;endArrow=block;startSize=8;elbow=vertical;rounded=0;startFill=0;labelBackgroundColor=none;strokeColor=#E07A5F;fontColor=default;" parent="1" edge="1">
          <mxGeometry x="-0.0303" y="4" relative="1" as="geometry">
            <mxPoint x="90" y="264" as="sourcePoint" />
            <mxPoint as="offset" />
            <mxPoint x="255" y="264" as="targetPoint" />
          </mxGeometry>
        </mxCell>
        <mxCell id="_pvaLfHRy_cF2C6sSua_-72" value="同步状态" style="html=1;verticalAlign=bottom;endArrow=block;elbow=vertical;rounded=0;labelBackgroundColor=none;strokeColor=#E07A5F;fontColor=default;" parent="1" source="_pvaLfHRy_cF2C6sSua_-73" edge="1">
          <mxGeometry x="NaN" y="386" relative="1" as="geometry">
            <mxPoint x="270.5" y="845.17" as="sourcePoint" />
            <mxPoint x="835.5" y="845.65" as="targetPoint" />
            <mxPoint x="-385" y="4" as="offset" />
          </mxGeometry>
        </mxCell>
        <mxCell id="_pvaLfHRy_cF2C6sSua_-74" value="" style="html=1;verticalAlign=bottom;endArrow=open;dashed=1;endSize=8;elbow=vertical;rounded=0;labelBackgroundColor=none;strokeColor=#E07A5F;fontColor=default;" parent="1" edge="1">
          <mxGeometry relative="1" as="geometry">
            <mxPoint x="90" y="910" as="targetPoint" />
            <mxPoint x="835.5" y="910" as="sourcePoint" />
          </mxGeometry>
        </mxCell>
        <mxCell id="50-FXwSxn8h8CmQYyutF-1" value="" style="html=1;verticalAlign=bottom;endArrow=block;elbow=vertical;rounded=0;labelBackgroundColor=none;strokeColor=#E07A5F;fontColor=default;" parent="1" target="_pvaLfHRy_cF2C6sSua_-73" edge="1">
          <mxGeometry x="-0.0796" relative="1" as="geometry">
            <mxPoint x="90" y="850" as="sourcePoint" />
            <mxPoint x="835.5" y="845.65" as="targetPoint" />
            <mxPoint as="offset" />
          </mxGeometry>
        </mxCell>
        <mxCell id="ubUJuNJmW0G-JIKS36Ns-15" value="同步任务状态" style="edgeLabel;html=1;align=center;verticalAlign=middle;resizable=0;points=[];" vertex="1" connectable="0" parent="50-FXwSxn8h8CmQYyutF-1">
          <mxGeometry x="0.1277" y="-1" relative="1" as="geometry">
            <mxPoint x="-54" y="-11" as="offset" />
          </mxGeometry>
        </mxCell>
        <mxCell id="_pvaLfHRy_cF2C6sSua_-73" value="" style="html=1;points=[];perimeter=orthogonalPerimeter;outlineConnect=0;targetShapes=umlLifeline;portConstraint=eastwest;newEdgeStyle={&quot;edgeStyle&quot;:&quot;elbowEdgeStyle&quot;,&quot;elbow&quot;:&quot;vertical&quot;,&quot;curved&quot;:0,&quot;rounded&quot;:0};labelBackgroundColor=none;fillColor=#F2CC8F;strokeColor=#E07A5F;fontColor=#393C56;" parent="1" vertex="1">
          <mxGeometry x="835.5" y="850" width="10" height="60" as="geometry" />
        </mxCell>
        <mxCell id="50-FXwSxn8h8CmQYyutF-6" value="数据迁移服务" style="shape=umlLifeline;perimeter=lifelinePerimeter;html=1;container=0;dropTarget=0;collapsible=0;recursiveResize=0;outlineConnect=0;portConstraint=eastwest;newEdgeStyle={&quot;edgeStyle&quot;:&quot;elbowEdgeStyle&quot;,&quot;elbow&quot;:&quot;vertical&quot;,&quot;curved&quot;:0,&quot;rounded&quot;:0};labelBackgroundColor=none;fillColor=#F2CC8F;strokeColor=#E07A5F;fontColor=#393C56;" parent="1" vertex="1">
          <mxGeometry x="210" y="170" width="111" height="790" as="geometry" />
        </mxCell>
        <mxCell id="50-FXwSxn8h8CmQYyutF-7" value="" style="html=1;points=[];perimeter=orthogonalPerimeter;outlineConnect=0;targetShapes=umlLifeline;portConstraint=eastwest;newEdgeStyle={&quot;edgeStyle&quot;:&quot;elbowEdgeStyle&quot;,&quot;elbow&quot;:&quot;vertical&quot;,&quot;curved&quot;:0,&quot;rounded&quot;:0};labelBackgroundColor=none;fillColor=#F2CC8F;strokeColor=#E07A5F;fontColor=#393C56;" parent="1" vertex="1">
          <mxGeometry x="260.5" y="260" width="10" height="460" as="geometry" />
        </mxCell>
        <mxCell id="50-FXwSxn8h8CmQYyutF-8" value="" style="group;rotation=90;" parent="1" vertex="1" connectable="0">
          <mxGeometry x="270" y="280" width="60" height="45" as="geometry" />
        </mxCell>
        <mxCell id="50-FXwSxn8h8CmQYyutF-9" value="" style="html=1;points=[];perimeter=orthogonalPerimeter;outlineConnect=0;targetShapes=umlLifeline;portConstraint=eastwest;newEdgeStyle={&quot;edgeStyle&quot;:&quot;elbowEdgeStyle&quot;,&quot;elbow&quot;:&quot;vertical&quot;,&quot;curved&quot;:0,&quot;rounded&quot;:0};labelBackgroundColor=none;fillColor=#F2CC8F;strokeColor=#E07A5F;fontColor=#393C56;" parent="50-FXwSxn8h8CmQYyutF-8" vertex="1">
          <mxGeometry x="-5" width="10" height="45" as="geometry" />
        </mxCell>
        <mxCell id="50-FXwSxn8h8CmQYyutF-10" value="获取业务插件" style="html=1;verticalAlign=bottom;endArrow=block;edgeStyle=orthogonalEdgeStyle;elbow=vertical;curved=1;rounded=0;entryX=1;entryY=0.622;entryDx=0;entryDy=0;entryPerimeter=0;labelBackgroundColor=none;strokeColor=#E07A5F;fontColor=default;" parent="50-FXwSxn8h8CmQYyutF-8" edge="1">
          <mxGeometry x="0.1111" y="45" relative="1" as="geometry">
            <mxPoint x="5" as="sourcePoint" />
            <Array as="points">
              <mxPoint x="55" />
            </Array>
            <mxPoint x="5" y="25.99000000000001" as="targetPoint" />
            <mxPoint as="offset" />
          </mxGeometry>
        </mxCell>
        <mxCell id="50-FXwSxn8h8CmQYyutF-11" value="执行插件：导入文件" style="html=1;verticalAlign=bottom;endArrow=block;elbow=vertical;rounded=0;labelBackgroundColor=none;strokeColor=#E07A5F;fontColor=default;" parent="1" edge="1">
          <mxGeometry x="-0.0442" relative="1" as="geometry">
            <mxPoint x="270.5" y="350" as="sourcePoint" />
            <mxPoint x="460" y="350" as="targetPoint" />
            <mxPoint as="offset" />
          </mxGeometry>
        </mxCell>
        <mxCell id="50-FXwSxn8h8CmQYyutF-16" value="" style="group;rotation=90;" parent="1" vertex="1" connectable="0">
          <mxGeometry x="470" y="500" width="60" height="45" as="geometry" />
        </mxCell>
        <mxCell id="50-FXwSxn8h8CmQYyutF-17" value="" style="html=1;points=[];perimeter=orthogonalPerimeter;outlineConnect=0;targetShapes=umlLifeline;portConstraint=eastwest;newEdgeStyle={&quot;edgeStyle&quot;:&quot;elbowEdgeStyle&quot;,&quot;elbow&quot;:&quot;vertical&quot;,&quot;curved&quot;:0,&quot;rounded&quot;:0};labelBackgroundColor=none;fillColor=#F2CC8F;strokeColor=#E07A5F;fontColor=#393C56;" parent="50-FXwSxn8h8CmQYyutF-16" vertex="1">
          <mxGeometry width="10" height="45" as="geometry" />
        </mxCell>
        <mxCell id="50-FXwSxn8h8CmQYyutF-18" value="解压缩&lt;br&gt;解析成对象" style="html=1;verticalAlign=bottom;endArrow=block;edgeStyle=orthogonalEdgeStyle;elbow=vertical;curved=1;rounded=0;entryX=1;entryY=0.622;entryDx=0;entryDy=0;entryPerimeter=0;labelBackgroundColor=none;strokeColor=#E07A5F;fontColor=default;" parent="50-FXwSxn8h8CmQYyutF-16" edge="1">
          <mxGeometry x="0.2063" y="40" relative="1" as="geometry">
            <mxPoint x="10" as="sourcePoint" />
            <Array as="points">
              <mxPoint x="60" />
            </Array>
            <mxPoint x="10" y="25.99000000000001" as="targetPoint" />
            <mxPoint x="40" y="-36" as="offset" />
          </mxGeometry>
        </mxCell>
        <mxCell id="50-FXwSxn8h8CmQYyutF-27" value="&lt;br&gt;按策略导入数据库" style="html=1;verticalAlign=bottom;endArrow=block;edgeStyle=orthogonalEdgeStyle;elbow=vertical;curved=1;rounded=0;entryX=1;entryY=0.622;entryDx=0;entryDy=0;entryPerimeter=0;labelBackgroundColor=none;strokeColor=#E07A5F;fontColor=default;" parent="1" edge="1">
          <mxGeometry x="0.1111" y="50" relative="1" as="geometry">
            <mxPoint x="480" y="570" as="sourcePoint" />
            <Array as="points">
              <mxPoint x="530" y="570" />
            </Array>
            <mxPoint x="480" y="595.99" as="targetPoint" />
            <mxPoint as="offset" />
          </mxGeometry>
        </mxCell>
        <mxCell id="50-FXwSxn8h8CmQYyutF-33" value="" style="endArrow=none;html=1;rounded=0;startArrow=classic;startFill=1;endFill=0;" parent="1" edge="1">
          <mxGeometry width="50" height="50" relative="1" as="geometry">
            <mxPoint x="490" y="564.58" as="sourcePoint" />
            <mxPoint x="570" y="564.58" as="targetPoint" />
          </mxGeometry>
        </mxCell>
        <mxCell id="50-FXwSxn8h8CmQYyutF-34" value="&lt;font color=&quot;#ff0000&quot;&gt;开启事务&lt;/font&gt;" style="edgeLabel;html=1;align=center;verticalAlign=middle;resizable=0;points=[];" parent="50-FXwSxn8h8CmQYyutF-33" vertex="1" connectable="0">
          <mxGeometry x="-0.0167" y="-4" relative="1" as="geometry">
            <mxPoint y="-14" as="offset" />
          </mxGeometry>
        </mxCell>
        <mxCell id="50-FXwSxn8h8CmQYyutF-36" value="" style="endArrow=none;html=1;rounded=0;startArrow=classic;startFill=1;endFill=0;" parent="1" edge="1">
          <mxGeometry width="50" height="50" relative="1" as="geometry">
            <mxPoint x="321" y="280.00000000000006" as="sourcePoint" />
            <mxPoint x="401" y="280.00000000000006" as="targetPoint" />
          </mxGeometry>
        </mxCell>
        <mxCell id="50-FXwSxn8h8CmQYyutF-37" value="&lt;font color=&quot;#ff0000&quot;&gt;加业务锁&lt;/font&gt;" style="edgeLabel;html=1;align=center;verticalAlign=middle;resizable=0;points=[];" parent="50-FXwSxn8h8CmQYyutF-36" vertex="1" connectable="0">
          <mxGeometry x="-0.0167" y="-4" relative="1" as="geometry">
            <mxPoint y="-14" as="offset" />
          </mxGeometry>
        </mxCell>
        <mxCell id="50-FXwSxn8h8CmQYyutF-38" value="" style="endArrow=none;html=1;rounded=0;startArrow=classic;startFill=1;endFill=0;" parent="1" edge="1">
          <mxGeometry width="50" height="50" relative="1" as="geometry">
            <mxPoint x="321" y="700" as="sourcePoint" />
            <mxPoint x="401" y="700" as="targetPoint" />
          </mxGeometry>
        </mxCell>
        <mxCell id="50-FXwSxn8h8CmQYyutF-39" value="&lt;font color=&quot;#ff0000&quot;&gt;释放锁&lt;/font&gt;" style="edgeLabel;html=1;align=center;verticalAlign=middle;resizable=0;points=[];" parent="50-FXwSxn8h8CmQYyutF-38" vertex="1" connectable="0">
          <mxGeometry x="-0.0167" y="-4" relative="1" as="geometry">
            <mxPoint y="-14" as="offset" />
          </mxGeometry>
        </mxCell>
        <mxCell id="50-FXwSxn8h8CmQYyutF-41" value="" style="endArrow=none;html=1;rounded=0;startArrow=classic;startFill=1;endFill=0;" parent="1" edge="1">
          <mxGeometry width="50" height="50" relative="1" as="geometry">
            <mxPoint x="490" y="615" as="sourcePoint" />
            <mxPoint x="570" y="615" as="targetPoint" />
          </mxGeometry>
        </mxCell>
        <mxCell id="50-FXwSxn8h8CmQYyutF-42" value="&lt;font color=&quot;#ff0000&quot;&gt;关闭事务&lt;/font&gt;" style="edgeLabel;html=1;align=center;verticalAlign=middle;resizable=0;points=[];" parent="50-FXwSxn8h8CmQYyutF-41" vertex="1" connectable="0">
          <mxGeometry x="-0.0167" y="-4" relative="1" as="geometry">
            <mxPoint y="-14" as="offset" />
          </mxGeometry>
        </mxCell>
        <mxCell id="ubUJuNJmW0G-JIKS36Ns-1" value="" style="html=1;verticalAlign=bottom;endArrow=open;dashed=1;endSize=8;edgeStyle=elbowEdgeStyle;elbow=vertical;curved=0;rounded=0;labelBackgroundColor=none;strokeColor=#E07A5F;fontColor=default;" edge="1" parent="1">
          <mxGeometry x="-1" y="397" relative="1" as="geometry">
            <mxPoint x="270" y="680" as="targetPoint" />
            <Array as="points">
              <mxPoint x="385" y="680" />
            </Array>
            <mxPoint x="460" y="680" as="sourcePoint" />
            <mxPoint x="276" y="-111" as="offset" />
          </mxGeometry>
        </mxCell>
        <mxCell id="ubUJuNJmW0G-JIKS36Ns-2" value="接收成功C40，接收失败C30" style="edgeLabel;html=1;align=center;verticalAlign=middle;resizable=0;points=[];" vertex="1" connectable="0" parent="ubUJuNJmW0G-JIKS36Ns-1">
          <mxGeometry x="-0.0474" y="-2" relative="1" as="geometry">
            <mxPoint x="-9" y="-8" as="offset" />
          </mxGeometry>
        </mxCell>
        <mxCell id="ubUJuNJmW0G-JIKS36Ns-4" value="" style="html=1;verticalAlign=bottom;endArrow=open;dashed=1;endSize=8;edgeStyle=elbowEdgeStyle;elbow=vertical;curved=0;rounded=0;labelBackgroundColor=none;strokeColor=#E07A5F;fontColor=default;" edge="1" parent="1">
          <mxGeometry x="-1" y="397" relative="1" as="geometry">
            <mxPoint x="85" y="720" as="targetPoint" />
            <Array as="points">
              <mxPoint x="187.5" y="720" />
            </Array>
            <mxPoint x="264" y="720" as="sourcePoint" />
            <mxPoint x="276" y="-111" as="offset" />
          </mxGeometry>
        </mxCell>
        <mxCell id="ubUJuNJmW0G-JIKS36Ns-11" value="" style="html=1;points=[];perimeter=orthogonalPerimeter;outlineConnect=0;targetShapes=umlLifeline;portConstraint=eastwest;newEdgeStyle={&quot;edgeStyle&quot;:&quot;elbowEdgeStyle&quot;,&quot;elbow&quot;:&quot;vertical&quot;,&quot;curved&quot;:0,&quot;rounded&quot;:0};labelBackgroundColor=none;fillColor=#F2CC8F;strokeColor=#E07A5F;fontColor=#393C56;" vertex="1" parent="1">
          <mxGeometry x="79" y="735" width="10" height="50" as="geometry" />
        </mxCell>
        <mxCell id="ubUJuNJmW0G-JIKS36Ns-6" value="" style="group;rotation=90;" vertex="1" connectable="0" parent="1">
          <mxGeometry x="84" y="735" width="60" height="45" as="geometry" />
        </mxCell>
        <mxCell id="ubUJuNJmW0G-JIKS36Ns-7" value="汇总任务状态" style="html=1;verticalAlign=bottom;endArrow=block;edgeStyle=orthogonalEdgeStyle;elbow=vertical;curved=1;rounded=0;entryX=1;entryY=0.622;entryDx=0;entryDy=0;entryPerimeter=0;labelBackgroundColor=none;strokeColor=#E07A5F;fontColor=default;" edge="1" parent="ubUJuNJmW0G-JIKS36Ns-6">
          <mxGeometry x="-0.2063" relative="1" as="geometry">
            <mxPoint x="5" as="sourcePoint" />
            <Array as="points">
              <mxPoint x="55" />
            </Array>
            <mxPoint x="5" y="25.99000000000001" as="targetPoint" />
            <mxPoint as="offset" />
          </mxGeometry>
        </mxCell>
        <mxCell id="ubUJuNJmW0G-JIKS36Ns-12" value="" style="html=1;points=[];perimeter=orthogonalPerimeter;outlineConnect=0;targetShapes=umlLifeline;portConstraint=eastwest;newEdgeStyle={&quot;edgeStyle&quot;:&quot;elbowEdgeStyle&quot;,&quot;elbow&quot;:&quot;vertical&quot;,&quot;curved&quot;:0,&quot;rounded&quot;:0};labelBackgroundColor=none;fillColor=#F2CC8F;strokeColor=#E07A5F;fontColor=#393C56;" vertex="1" parent="1">
          <mxGeometry x="840" y="864" width="10" height="37.42" as="geometry" />
        </mxCell>
        <mxCell id="ubUJuNJmW0G-JIKS36Ns-13" value="" style="group;rotation=90;" vertex="1" connectable="0" parent="1">
          <mxGeometry x="845.5" y="865" width="60" height="45" as="geometry" />
        </mxCell>
        <mxCell id="ubUJuNJmW0G-JIKS36Ns-14" value="回写任务状态" style="html=1;verticalAlign=bottom;endArrow=block;edgeStyle=orthogonalEdgeStyle;elbow=vertical;curved=1;rounded=0;entryX=1;entryY=0.622;entryDx=0;entryDy=0;entryPerimeter=0;labelBackgroundColor=none;strokeColor=#E07A5F;fontColor=default;" edge="1" parent="ubUJuNJmW0G-JIKS36Ns-13">
          <mxGeometry x="-0.2063" relative="1" as="geometry">
            <mxPoint x="5" as="sourcePoint" />
            <Array as="points">
              <mxPoint x="55" />
            </Array>
            <mxPoint x="5" y="25.99000000000001" as="targetPoint" />
            <mxPoint as="offset" />
          </mxGeometry>
        </mxCell>
        <mxCell id="ubUJuNJmW0G-JIKS36Ns-17" value="" style="html=1;points=[];perimeter=orthogonalPerimeter;outlineConnect=0;targetShapes=umlLifeline;portConstraint=eastwest;newEdgeStyle={&quot;edgeStyle&quot;:&quot;elbowEdgeStyle&quot;,&quot;elbow&quot;:&quot;vertical&quot;,&quot;curved&quot;:0,&quot;rounded&quot;:0};labelBackgroundColor=none;fillColor=#F2CC8F;strokeColor=#E07A5F;fontColor=#393C56;" vertex="1" parent="1">
          <mxGeometry x="470" y="570" width="10" height="37.42" as="geometry" />
        </mxCell>
        <mxCell id="_pvaLfHRy_cF2C6sSua_-34" value="" style="rounded=0;whiteSpace=wrap;html=1;strokeColor=#1A1A1A;fontColor=#393C56;fillColor=#F2CC8F;opacity=10;strokeWidth=2;" parent="1" vertex="1">
          <mxGeometry x="405" y="400" width="225" height="240" as="geometry" />
        </mxCell>
        <mxCell id="dqEPXR2y4I70jWlFoT9I-33" value="" style="html=1;points=[];perimeter=orthogonalPerimeter;outlineConnect=0;targetShapes=umlLifeline;portConstraint=eastwest;newEdgeStyle={&quot;edgeStyle&quot;:&quot;elbowEdgeStyle&quot;,&quot;elbow&quot;:&quot;vertical&quot;,&quot;curved&quot;:0,&quot;rounded&quot;:0};labelBackgroundColor=none;fillColor=#F2CC8F;strokeColor=#E07A5F;fontColor=#393C56;" parent="1" vertex="1">
          <mxGeometry x="645" y="450" width="10" height="30" as="geometry" />
        </mxCell>
        <mxCell id="dqEPXR2y4I70jWlFoT9I-30" value="下载数据包文件" style="html=1;verticalAlign=bottom;endArrow=block;edgeStyle=elbowEdgeStyle;elbow=vertical;curved=0;rounded=0;labelBackgroundColor=none;strokeColor=#E07A5F;fontColor=default;" parent="1" edge="1">
          <mxGeometry relative="1" as="geometry">
            <mxPoint x="475" y="450" as="sourcePoint" />
            <Array as="points">
              <mxPoint x="560" y="450" />
            </Array>
            <mxPoint x="640" y="450" as="targetPoint" />
          </mxGeometry>
        </mxCell>
        <mxCell id="_pvaLfHRy_cF2C6sSua_-35" value="" style="html=1;verticalAlign=bottom;endArrow=open;dashed=1;endSize=8;edgeStyle=elbowEdgeStyle;elbow=vertical;curved=0;rounded=0;labelBackgroundColor=none;strokeColor=#E07A5F;fontColor=default;" parent="1" edge="1">
          <mxGeometry relative="1" as="geometry">
            <mxPoint x="470.5" y="480" as="targetPoint" />
            <Array as="points" />
            <mxPoint x="640.5" y="480" as="sourcePoint" />
          </mxGeometry>
        </mxCell>
        <mxCell id="_pvaLfHRy_cF2C6sSua_-60" value="" style="shape=card;whiteSpace=wrap;html=1;rotation=-180;size=10;fillColor=#F2CC8F;strokeColor=#E07A5F;labelBackgroundColor=none;fontColor=#393C56;" parent="1" vertex="1">
          <mxGeometry x="405" y="400" width="33" height="20" as="geometry" />
        </mxCell>
        <mxCell id="_pvaLfHRy_cF2C6sSua_-58" value="&lt;pre&gt;&lt;font face=&quot;Times New Roman&quot; style=&quot;font-size: 11px;&quot;&gt;&lt;sub style=&quot;font-weight: normal;&quot;&gt;&lt;i&gt;loop 数据包&lt;/i&gt;&lt;/sub&gt;&lt;/font&gt;&lt;/pre&gt;" style="text;strokeColor=none;fillColor=none;html=1;fontSize=24;fontStyle=1;verticalAlign=middle;align=center;fontColor=#393C56;" parent="1" vertex="1">
          <mxGeometry x="426" y="395" width="30" height="10" as="geometry" />
        </mxCell>
      </root>
    </mxGraphModel>
  </diagram>
</mxfile>
